<?xml version="1.0" encoding="utf-8"?>
<!-- Generator: Adobe Illustrator 26.0.3, SVG Export Plug-In . SVG Version: 6.00 Build 0)  -->
<svg version="1.1" id="Capa_1" xmlns="http://www.w3.org/2000/svg" xmlns:xlink="http://www.w3.org/1999/xlink" x="0px" y="0px"
	 viewBox="0 0 50 42" style="enable-background:new 0 0 50 42;" xml:space="preserve">
<style type="text/css">
	.st0{fill:#FFFFFF;}
</style>
<g transform="translate(0.000000,1014.000000) scale(0.100000,-0.100000)">
	<path class="st0" d="M32.6,10124.9c-10.9-0.2-22.8-0.3-26.3-0.4l-6.4,0l0.1-15.1c0.1-8.3,0.2-15.2,0.4-15.3c0.1-0.2,19,0,41.9,0.2
		c22.9,0.3,42,0.4,42.3,0.2c0.7-0.3,2.6-4,17.7-35.5l12.3-25.8v-99.5v-99.5l161.3,0.1l161.3,0.1l2.3,7c1.3,3.9,3.6,11,5.2,15.8
		c1.6,4.8,4.1,12.6,5.7,17.4c1.6,4.8,4.1,12.5,5.6,17.2c6.3,19.4,8.6,26.5,11.3,34.6c5.4,16.5,26.2,80.3,29.4,90.2l3.3,10v11.2v11.2
		l-8.7-0.2c-4.8-0.1-76.1-0.3-158.3-0.6c-82.2-0.2-158.9-0.5-170.3-0.6l-20.7-0.2l-2.5,5.2c-8.3,17.6-26,54.3-27.1,56.4
		c-3.6,6.6-7.4,10.5-12.6,13c-5.8,2.9-6.5,2.9-28.1,3C61.2,10125.2,43.6,10125.1,32.6,10124.9z M452.5,10004.9
		c-1-3.2-2.2-6.6-2.5-7.6l-0.6-1.9h-32h-32v7.3v7.4l9.1,0.2c5,0.1,20.5,0.3,34.5,0.3l25.4,0.1L452.5,10004.9z M347,10002.8v-7.4
		h-19.1h-19.1v7.4v7.4h19.1H347V10002.8z M193.7,10002.6v-7.2h-20.3H153v7v7l13.2,0.1c7.2,0,16.4,0.1,20.3,0.2l7.1,0.1V10002.6z
		 M270.1,10002.6v-7.2h-18.9h-18.9v7.2v7.2h18.9h18.9V10002.6z M193.7,9945.4v-11.7h-20.3H153v11.4c0,6.3,0.1,11.6,0.3,11.7
		c0.1,0.2,9.3,0.3,20.3,0.3h20V9945.4z M270.1,9945.4v-11.7h-18.9h-18.9v11.7v11.7h18.9h18.9V9945.4z M347,9945.4v-11.7h-19.1h-19.1
		v11.7v11.7h19.1H347V9945.4z M436.8,9956.8c0-0.2-1.7-5.4-3.7-11.7l-3.7-11.4h-21.9h-21.8l-0.1,11.5c-0.1,6.3,0,11.6,0,11.7
		C385.9,9957.2,436.8,9957.1,436.8,9956.8z M193.7,9884v-11.5h-20.3H153v11.2c0,6.2,0.1,11.4,0.3,11.5c0.1,0.2,9.3,0.3,20.3,0.3h20
		V9884z M270.1,9884v-11.5h-18.9h-18.9v11.5v11.5h18.9h18.9V9884z M347,9884v-11.5h-19.1h-19.1v11.5v11.5h19.1H347V9884z
		 M416.7,9895c0-0.3-1.2-4.3-2.8-9c-1.6-4.7-3.1-9.6-3.6-10.9l-0.8-2.4l-11.9-0.1l-12-0.1v11.5v11.5h15.5
		C412.5,9895.5,416.7,9895.4,416.7,9895z"/>
	<path class="st0" d="M191,9815.1c-16.5-1.4-30-9.3-38.6-22.9c-7.6-11.8-9.5-27.5-5.1-41.1c4.7-14.4,16.3-26.2,30.3-31.1
		c22.3-7.7,46.5,1.1,58.7,21.5c5,8.2,7.3,18.7,6.5,28.9c-1.7,21.3-17.9,39.6-38.8,43.7C199.9,9814.9,194,9815.4,191,9815.1z
		 M200.5,9789.8c8-2.3,15-9.3,17.1-17.3c0.8-3.1,0.8-9.3,0-12.4c-1.2-4.3-3-7.4-6.4-10.9c-3.7-3.7-6.6-5.5-11.3-6.6
		c-12.9-3.3-26.2,4.6-29.5,17.5c-0.9,3.5-1,7.9-0.4,11.2c0.2,1.2,1.2,3.8,2.2,5.8C177.2,9787.5,189.2,9792.9,200.5,9789.8z"/>
	<path class="st0" d="M356.1,9815c-19.2-1.7-35.9-14.9-42.1-33.3c-5.7-17.1-1.4-36.1,11.1-49.2c7.1-7.5,15.6-12.2,26-14.4
		c4.7-1,14.2-1,18.9,0c13,2.8,24.1,10.1,31.2,20.9c5.6,8.4,8.2,17.1,8.2,27.4c0,8.1-1.7,15.1-5.3,22.2
		C395.1,9806.2,376,9816.8,356.1,9815z M367.3,9789.7c8.2-2.4,14.9-9.3,17-17.6c0.8-3.1,0.8-8.5,0-11.8c-2.1-8.6-9.8-16.1-18.5-18
		c-8.4-1.8-16.3,0.6-22.4,6.7c-5.2,5.2-7.5,11.2-7.1,18.6c0.3,4.8,1.4,8.4,3.9,12.1c2.5,3.8,5.4,6.3,9.4,8.3
		C355.1,9790.7,361.7,9791.4,367.3,9789.7z"/>
</g>
</svg>
