<?xml version="1.0" encoding="utf-8"?>
<!-- Svg Vector Icons : http://www.onlinewebfonts.com/icon -->
<!DOCTYPE svg PUBLIC "-//W3C//DTD SVG 1.1//EN" "http://www.w3.org/Graphics/SVG/1.1/DTD/svg11.dtd">
<svg version="1.1" xmlns="http://www.w3.org/2000/svg" xmlns:xlink="http://www.w3.org/1999/xlink" x="0px" y="0px" viewBox="0 0 1000 1000" enable-background="new 0 0 1000 1000" xml:space="preserve">
<metadata> Svg Vector Icons : http://www.onlinewebfonts.com/icon </metadata>
<g><path d="M430,762.5c0,38.6-31.4,70-70,70c-38.6,0-70-31.4-70-70c0-38.7,31.4-70,70-70C398.6,692.5,430,723.8,430,762.5"/><path d="M815,762.5c0,38.6-31.4,70-70,70c-38.6,0-70-31.4-70-70c0-38.7,31.4-70,70-70C783.6,692.5,815,723.8,815,762.5"/><path d="M203.1,272.5l-70.6-105h-70C33.6,167.5,10,191,10,220s23.6,52.5,52.5,52.5h31l179,350h599.7l117.8-350H203.1z M255,360c-9.6,0-17.5-7.8-17.5-17.5c0-9.7,7.9-17.5,17.5-17.5c9.7,0,17.5,7.8,17.5,17.5C272.5,352.2,264.7,360,255,360 M640,395c9.7,0,17.5,7.8,17.5,17.5c0,9.6-7.8,17.5-17.5,17.5c-9.6,0-17.5-7.9-17.5-17.5C622.5,402.8,630.4,395,640,395 M605,325c9.7,0,17.5,7.8,17.5,17.5c0,9.7-7.8,17.5-17.5,17.5c-9.6,0-17.4-7.8-17.4-17.5C587.6,332.8,595.4,325,605,325 M570.1,395c9.7,0,17.5,7.8,17.5,17.5c0,9.6-7.8,17.5-17.5,17.5c-9.6,0-17.5-7.9-17.5-17.5C552.6,402.8,560.5,395,570.1,395 M465,325c9.7,0,17.5,7.8,17.5,17.5c0,9.7-7.8,17.5-17.5,17.5c-9.6,0-17.5-7.8-17.5-17.5C447.5,332.8,455.4,325,465,325 M395,325c9.7,0,17.5,7.8,17.5,17.5c0,9.7-7.8,17.5-17.5,17.5c-9.6,0-17.5-7.8-17.5-17.5C377.5,332.8,385.4,325,395,325 M325,325c9.7,0,17.5,7.8,17.5,17.5c0,9.7-7.8,17.5-17.5,17.5c-9.6,0-17.5-7.8-17.5-17.5C307.5,332.8,315.4,325,325,325 M290,430c-9.6,0-17.5-7.9-17.5-17.5c0-9.7,7.9-17.5,17.5-17.5c9.7,0,17.5,7.8,17.5,17.5C307.5,422.2,299.7,430,290,430 M325,500c-9.6,0-17.5-7.9-17.5-17.5c0-9.7,7.9-17.5,17.5-17.5c9.7,0,17.5,7.8,17.5,17.5C342.5,492.2,334.7,500,325,500 M360,395c9.7,0,17.5,7.8,17.5,17.5c0,9.6-7.8,17.5-17.5,17.5c-9.6,0-17.5-7.9-17.5-17.5C342.5,402.8,350.4,395,360,395 M360,570c-9.6,0-17.4-7.9-17.4-17.5c0-9.7,7.8-17.5,17.4-17.5c9.7,0,17.5,7.8,17.5,17.5C377.5,562.2,369.7,570,360,570 M395,500c-9.6,0-17.5-7.9-17.5-17.5c0-9.7,7.9-17.5,17.5-17.5c9.7,0,17.5,7.8,17.5,17.5C412.5,492.2,404.7,500,395,500 M430,395c9.7,0,17.5,7.8,17.5,17.5c0,9.6-7.8,17.5-17.5,17.5c-9.6,0-17.5-7.9-17.5-17.5C412.5,402.8,420.4,395,430,395 M430,570c-9.6,0-17.4-7.9-17.4-17.5c0-9.7,7.8-17.5,17.4-17.5c9.7,0,17.5,7.8,17.5,17.5C447.5,562.2,439.7,570,430,570 M465,500c-9.6,0-17.5-7.9-17.5-17.5c0-9.7,7.9-17.5,17.5-17.5c9.7,0,17.5,7.8,17.5,17.5C482.5,492.2,474.7,500,465,500 M500,395c9.7,0,17.5,7.8,17.5,17.5c0,9.6-7.8,17.5-17.5,17.5c-9.6,0-17.5-7.9-17.5-17.5C482.5,402.8,490.4,395,500,395 M500,570c-9.6,0-17.4-7.9-17.4-17.5c0-9.7,7.8-17.5,17.4-17.5c9.7,0,17.5,7.8,17.5,17.5C517.5,562.2,509.7,570,500,570 M535,500c-9.6,0-17.4-7.9-17.4-17.5c0-9.7,7.8-17.5,17.4-17.5c9.7,0,17.5,7.8,17.5,17.5C552.5,492.2,544.7,500,535,500 M535,360c-9.6,0-17.5-7.8-17.5-17.5c0-9.7,7.9-17.5,17.5-17.5c9.7,0,17.5,7.8,17.5,17.5C552.5,352.2,544.7,360,535,360 M569.9,570c-9.6,0-17.4-7.9-17.4-17.5c0-9.7,7.8-17.5,17.4-17.5c9.7,0,17.5,7.8,17.5,17.5C587.4,562.2,579.7,570,569.9,570 M605,500c-9.6,0-17.4-7.9-17.4-17.5c0-9.7,7.8-17.5,17.4-17.5c9.7,0,17.5,7.8,17.5,17.5C622.5,492.2,614.7,500,605,500 M639.9,570c-9.6,0-17.4-7.9-17.4-17.5c0-9.7,7.8-17.5,17.4-17.5c9.7,0,17.5,7.8,17.5,17.5C657.5,562.2,649.6,570,639.9,570 M675,500c-9.6,0-17.4-7.9-17.4-17.5c0-9.7,7.8-17.5,17.4-17.5c9.7,0,17.5,7.8,17.5,17.5C692.4,492.2,684.7,500,675,500 M675,360c-9.6,0-17.5-7.8-17.5-17.5c0-9.7,7.9-17.5,17.5-17.5c9.7,0,17.5,7.8,17.5,17.5C692.5,352.2,684.7,360,675,360 M710,395c9.7,0,17.5,7.8,17.5,17.5c0,9.6-7.8,17.5-17.5,17.5c-9.6,0-17.5-7.9-17.5-17.5C692.5,402.8,700.4,395,710,395 M710,570c-9.6,0-17.4-7.9-17.4-17.5c0-9.7,7.8-17.5,17.4-17.5c9.7,0,17.5,7.8,17.5,17.5C727.5,562.2,719.7,570,710,570 M744.9,500c-9.6,0-17.4-7.9-17.4-17.5c0-9.7,7.8-17.5,17.4-17.5c9.7,0,17.5,7.8,17.5,17.5C762.4,492.2,754.6,500,744.9,500 M745,360c-9.6,0-17.5-7.8-17.5-17.5c0-9.7,7.9-17.5,17.5-17.5c9.7,0,17.5,7.8,17.5,17.5C762.5,352.2,754.7,360,745,360 M780,570c-9.6,0-17.4-7.9-17.4-17.5c0-9.7,7.8-17.5,17.4-17.5c9.7,0,17.5,7.8,17.5,17.5C797.5,562.2,789.7,570,780,570 M780,430c-9.6,0-17.4-7.9-17.4-17.5c0-9.7,7.8-17.5,17.4-17.5c9.7,0,17.5,7.8,17.5,17.5C797.5,422.2,789.7,430,780,430 M815,500c-9.6,0-17.4-7.9-17.4-17.5c0-9.7,7.8-17.5,17.4-17.5c9.7,0,17.5,7.8,17.5,17.5C832.5,492.2,824.7,500,815,500 M815,360c-9.6,0-17.4-7.8-17.4-17.5c0-9.7,7.8-17.5,17.4-17.5c9.7,0,17.5,7.8,17.5,17.5C832.5,352.2,824.7,360,815,360 M850,430c-9.6,0-17.4-7.9-17.4-17.5c0-9.7,7.8-17.5,17.4-17.5c9.7,0,17.5,7.8,17.5,17.5C867.5,422.2,859.7,430,850,430 M885,360c-9.6,0-17.5-7.8-17.5-17.5c0-9.7,7.9-17.5,17.5-17.5c9.7,0,17.5,7.8,17.5,17.5C902.5,352.2,894.7,360,885,360"/></g>
</svg>