<?xml version="1.0" encoding="UTF-8"?>
<svg xmlns="http://www.w3.org/2000/svg" xmlns:xlink="http://www.w3.org/1999/xlink" viewBox="0 0 60 60" width="60px" height="60px">
<g id="surface103993784">
<path style=" stroke:none;fill-rule:nonzero;fill:rgb(100%,100%,100%);fill-opacity:1;" d="M 14.828125 6 L 18.378906 18.824219 L 18.378906 24.976562 L 21.453125 24.976562 L 21.453125 18.824219 L 25.050781 6 L 21.953125 6 L 20.664062 11.835938 C 20.300781 13.539062 20.070312 14.75 19.964844 15.472656 L 19.871094 15.472656 C 19.722656 14.460938 19.488281 13.242188 19.171875 11.8125 L 17.929688 6 Z M 28.636719 10.839844 C 27.59375 10.839844 26.753906 11.046875 26.113281 11.460938 C 25.472656 11.875 25 12.539062 24.699219 13.441406 C 24.398438 14.347656 24.246094 15.542969 24.246094 17.035156 L 24.246094 19.046875 C 24.246094 20.523438 24.378906 21.707031 24.644531 22.597656 C 24.910156 23.488281 25.351562 24.144531 25.976562 24.566406 C 26.601562 24.988281 27.464844 25.199219 28.566406 25.203125 C 29.636719 25.203125 30.488281 24.992188 31.113281 24.578125 C 31.738281 24.164062 32.191406 23.511719 32.46875 22.613281 C 32.746094 21.714844 32.886719 20.527344 32.886719 19.050781 L 32.886719 17.035156 C 32.886719 15.542969 32.742188 14.351562 32.457031 13.453125 C 32.171875 12.558594 31.722656 11.894531 31.101562 11.472656 C 30.484375 11.050781 29.660156 10.839844 28.636719 10.839844 Z M 34.503906 11.113281 L 34.503906 21.46875 C 34.503906 22.75 34.722656 23.695312 35.160156 24.296875 C 35.597656 24.898438 36.273438 25.199219 37.195312 25.199219 C 38.519531 25.199219 39.519531 24.558594 40.179688 23.277344 L 40.246094 23.277344 L 40.519531 24.972656 L 42.960938 24.972656 L 42.960938 11.113281 L 39.84375 11.113281 L 39.84375 22.121094 C 39.722656 22.378906 39.539062 22.59375 39.289062 22.757812 C 39.039062 22.925781 38.78125 23.007812 38.507812 23.007812 C 38.191406 23.007812 37.964844 22.875 37.828125 22.609375 C 37.691406 22.34375 37.625 21.910156 37.625 21.289062 L 37.625 11.113281 Z M 28.566406 12.988281 C 29.003906 12.988281 29.3125 13.21875 29.484375 13.679688 C 29.660156 14.136719 29.742188 14.863281 29.742188 15.859375 L 29.742188 20.179688 C 29.742188 21.207031 29.65625 21.941406 29.484375 22.394531 C 29.3125 22.847656 29.003906 23.070312 28.570312 23.074219 C 28.132812 23.074219 27.828125 22.847656 27.664062 22.394531 C 27.496094 21.941406 27.414062 21.203125 27.414062 20.179688 L 27.414062 15.859375 C 27.414062 14.867188 27.503906 14.140625 27.675781 13.679688 C 27.847656 13.222656 28.144531 12.988281 28.566406 12.988281 Z M 13 27.800781 C 10.238281 27.800781 8 30.039062 8 32.800781 L 8 48.800781 C 8 51.5625 10.238281 53.800781 13 53.800781 L 47 53.800781 C 49.761719 53.800781 52 51.5625 52 48.800781 L 52 32.800781 C 52 30.039062 49.761719 27.800781 47 27.800781 Z M 30.117188 32.398438 L 32.65625 32.398438 L 32.65625 38.566406 L 32.675781 38.566406 C 32.902344 38.121094 33.226562 37.761719 33.648438 37.488281 C 34.070312 37.214844 34.523438 37.078125 35.007812 37.078125 C 35.632812 37.078125 36.117188 37.246094 36.472656 37.574219 C 36.828125 37.902344 37.089844 38.441406 37.246094 39.179688 C 37.402344 39.917969 37.484375 40.945312 37.484375 42.253906 L 37.484375 44.101562 C 37.484375 45.84375 37.277344 47.128906 36.855469 47.949219 C 36.433594 48.769531 35.777344 49.183594 34.886719 49.183594 C 34.390625 49.183594 33.9375 49.066406 33.53125 48.839844 C 33.125 48.613281 32.820312 48.296875 32.617188 47.902344 L 32.558594 47.902344 L 32.292969 49.007812 L 30.117188 49.007812 Z M 14.367188 32.992188 L 22.175781 32.992188 L 22.175781 35.113281 L 19.558594 35.113281 L 19.558594 49.007812 L 16.980469 49.007812 L 16.980469 35.113281 L 14.367188 35.113281 Z M 42.234375 37.085938 C 43.136719 37.085938 43.832031 37.25 44.316406 37.578125 C 44.796875 37.910156 45.140625 38.425781 45.339844 39.125 C 45.535156 39.824219 45.632812 40.792969 45.632812 42.027344 L 45.632812 44.035156 L 41.226562 44.035156 L 41.226562 44.628906 C 41.226562 45.382812 41.246094 45.941406 41.292969 46.316406 C 41.339844 46.691406 41.429688 46.964844 41.570312 47.136719 C 41.710938 47.308594 41.925781 47.394531 42.21875 47.394531 C 42.613281 47.394531 42.882812 47.242188 43.03125 46.9375 C 43.175781 46.632812 43.257812 46.121094 43.269531 45.410156 L 45.539062 45.542969 C 45.550781 45.644531 45.558594 45.785156 45.558594 45.964844 C 45.558594 47.046875 45.265625 47.855469 44.671875 48.386719 C 44.078125 48.921875 43.242188 49.191406 42.160156 49.191406 C 40.863281 49.191406 39.953125 48.78125 39.429688 47.96875 C 38.90625 47.15625 38.648438 45.894531 38.648438 44.1875 L 38.648438 42.144531 C 38.648438 40.386719 38.921875 39.105469 39.460938 38.296875 C 40 37.488281 40.925781 37.085938 42.234375 37.085938 Z M 25.898438 37.300781 L 28.535156 37.300781 L 28.535156 49.003906 L 28.527344 49.003906 L 28.527344 49.007812 L 26.464844 49.007812 L 26.238281 47.574219 L 26.179688 47.574219 C 25.621094 48.660156 24.78125 49.199219 23.660156 49.199219 C 22.882812 49.199219 22.3125 48.949219 21.941406 48.4375 C 21.570312 47.929688 21.386719 47.128906 21.386719 46.050781 L 21.386719 37.304688 L 24.027344 37.304688 L 24.027344 45.898438 C 24.027344 46.417969 24.085938 46.796875 24.199219 47.015625 C 24.316406 47.238281 24.503906 47.347656 24.773438 47.347656 C 25 47.347656 25.21875 47.277344 25.429688 47.136719 C 25.640625 46.996094 25.792969 46.816406 25.898438 46.601562 Z M 42.179688 38.863281 C 41.898438 38.863281 41.6875 38.945312 41.554688 39.109375 C 41.421875 39.273438 41.332031 39.546875 41.289062 39.921875 C 41.242188 40.296875 41.222656 40.867188 41.222656 41.628906 L 41.222656 42.46875 L 43.148438 42.46875 L 43.148438 41.628906 C 43.148438 40.875 43.125 40.308594 43.074219 39.921875 C 43.023438 39.53125 42.933594 39.261719 42.800781 39.101562 C 42.667969 38.945312 42.460938 38.863281 42.179688 38.863281 Z M 33.820312 38.949219 C 33.566406 38.949219 33.328125 39.050781 33.113281 39.253906 C 32.898438 39.457031 32.746094 39.71875 32.65625 40.035156 L 32.65625 46.679688 C 32.773438 46.882812 32.921875 47.035156 33.105469 47.136719 C 33.289062 47.238281 33.488281 47.292969 33.707031 47.292969 C 33.988281 47.292969 34.210938 47.191406 34.375 46.988281 C 34.539062 46.785156 34.660156 46.441406 34.726562 45.957031 C 34.796875 45.476562 34.832031 44.804688 34.832031 43.953125 L 34.832031 42.445312 C 34.832031 41.53125 34.804688 40.820312 34.746094 40.324219 C 34.691406 39.828125 34.585938 39.472656 34.441406 39.265625 C 34.296875 39.058594 34.089844 38.949219 33.820312 38.949219 Z M 33.820312 38.949219 "/>
</g>
</svg>
