<?xml version="1.0" encoding="UTF-8"?>
<svg xmlns="http://www.w3.org/2000/svg" xmlns:xlink="http://www.w3.org/1999/xlink" viewBox="0 0 80 80" width="80px" height="80px">
<g id="surface14797422">
<path style=" stroke:none;fill-rule:nonzero;fill:rgb(94.901961%,98.039216%,100%);fill-opacity:1;" d="M 8.441406 58.597656 L 8.234375 58.234375 C 5.019531 52.660156 3.316406 46.296875 3.316406 39.824219 C 3.324219 19.519531 19.851562 3 40.15625 3 C 50.007812 3.003906 59.261719 6.839844 66.214844 13.796875 C 73.171875 20.757812 77 30.011719 77 39.855469 C 76.988281 60.160156 60.464844 76.683594 40.160156 76.683594 C 33.996094 76.679688 27.90625 75.128906 22.539062 72.203125 L 22.191406 72.011719 L 3.421875 76.929688 Z M 8.441406 58.597656 "/>
<path style=" stroke:none;fill-rule:nonzero;fill:rgb(47.058824%,54.509807%,61.176473%);fill-opacity:1;" d="M 40.15625 4 C 49.738281 4.003906 58.742188 7.734375 65.507812 14.507812 C 72.273438 21.277344 76 30.28125 76 39.855469 C 75.988281 59.609375 59.914062 75.683594 40.144531 75.683594 C 34.164062 75.679688 28.242188 74.171875 23.019531 71.320312 L 22.320312 70.941406 L 21.550781 71.144531 L 4.84375 75.523438 L 9.296875 59.261719 L 9.515625 58.457031 L 9.101562 57.734375 C 5.96875 52.3125 4.3125 46.117188 4.316406 39.824219 C 4.324219 20.070312 20.402344 4 40.15625 4 M 40.15625 2 C 19.300781 2 2.324219 18.96875 2.316406 39.824219 C 2.3125 46.488281 4.054688 53 7.367188 58.734375 L 2 78.339844 L 22.058594 73.078125 C 27.585938 76.09375 33.808594 77.679688 40.144531 77.683594 L 40.160156 77.683594 C 61.015625 77.683594 77.988281 60.710938 78 39.855469 C 78 29.746094 74.066406 20.238281 66.925781 13.089844 C 59.78125 5.941406 50.28125 2.003906 40.15625 2 Z M 40.15625 2 "/>
<path style=" stroke:none;fill-rule:nonzero;fill:rgb(18.039216%,80.000001%,44.313726%);fill-opacity:1;" d="M 39.988281 70 C 34.980469 69.996094 30.027344 68.734375 25.65625 66.355469 L 22.792969 64.789062 L 19.632812 65.617188 L 13.152344 67.316406 L 14.8125 61.257812 L 15.71875 57.945312 L 14 54.96875 C 11.382812 50.4375 9.996094 45.253906 10 39.984375 C 10.007812 23.453125 23.464844 10.003906 39.996094 10 C 48.019531 10.003906 55.554688 13.125 61.214844 18.792969 C 66.882812 24.460938 70 31.996094 70 40.011719 C 69.992188 56.546875 56.535156 70 39.988281 70 Z M 39.988281 70 "/>
<path style=" stroke:none;fill-rule:nonzero;fill:rgb(100%,100%,100%);fill-opacity:1;" d="M 56.558594 47.375 C 55.660156 46.929688 51.238281 44.75 50.417969 44.453125 C 49.59375 44.148438 48.992188 44.003906 48.394531 44.898438 C 47.792969 45.800781 46.070312 47.824219 45.546875 48.421875 C 45.023438 49.023438 44.5 49.097656 43.601562 48.648438 C 42.699219 48.199219 39.800781 47.246094 36.371094 44.1875 C 33.695312 41.804688 31.890625 38.859375 31.367188 37.960938 C 30.84375 37.058594 31.308594 36.574219 31.761719 36.125 C 32.164062 35.722656 32.660156 35.074219 33.109375 34.550781 C 33.558594 34.027344 33.710938 33.652344 34.011719 33.050781 C 34.3125 32.453125 34.160156 31.925781 33.933594 31.476562 C 33.707031 31.03125 31.910156 26.605469 31.160156 24.804688 C 30.433594 23.054688 29.6875 23.292969 29.136719 23.265625 C 28.613281 23.234375 28.011719 23.234375 27.414062 23.234375 C 26.8125 23.234375 25.839844 23.460938 25.019531 24.359375 C 24.195312 25.261719 21.871094 27.433594 21.871094 31.859375 C 21.871094 36.28125 25.09375 40.558594 25.542969 41.15625 C 25.988281 41.757812 31.878906 50.835938 40.902344 54.726562 C 43.046875 55.652344 44.722656 56.207031 46.027344 56.621094 C 48.179688 57.304688 50.140625 57.210938 51.691406 56.976562 C 53.417969 56.71875 57.011719 54.804688 57.757812 52.707031 C 58.507812 50.609375 58.507812 48.804688 58.28125 48.433594 C 58.058594 48.050781 57.460938 47.824219 56.558594 47.375 Z M 56.558594 47.375 "/>
</g>
</svg>
