<?xml version="1.0" encoding="utf-8"?>
<!-- Svg Vector Icons : http://www.onlinewebfonts.com/icon -->
<!DOCTYPE svg PUBLIC "-//W3C//DTD SVG 1.1//EN" "http://www.w3.org/Graphics/SVG/1.1/DTD/svg11.dtd">
<svg version="1.1" xmlns="http://www.w3.org/2000/svg" xmlns:xlink="http://www.w3.org/1999/xlink" x="0px" y="0px" viewBox="0 0 1000 1000" enable-background="new 0 0 1000 1000" xml:space="preserve">
<metadata> Svg Vector Icons : http://www.onlinewebfonts.com/icon </metadata>
<g><g transform="translate(0.000000,511.000000) scale(0.100000,-0.100000)"><path d="M100,110v-4287.5h4900h4900V110v4287.5H5000H100V110z M9287.5-196.3V-3565H5000H712.5v3368.7v3368.7H5000h4287.5V-196.3z"/><path d="M7450,1641.3V1335H4387.5H1325v-306.3V722.5h3062.5H7450V416.3V110h306.2h306.3v306.3v306.3h306.3H8675v306.3V1335h-306.3h-306.3v306.3v306.3h-306.3H7450V1641.3z"/><path d="M1937.5-808.8V-1115h-306.2H1325v-306.3v-306.3h306.3h306.2v-306.3V-2340h306.3H2550v306.3v306.3h3062.5H8675v306.3v306.3H5612.5H2550v306.2v306.3h-306.3h-306.3V-808.8z"/></g></g>
</svg>