<?xml version="1.0" encoding="utf-8"?>
<!-- Generator: Adobe Illustrator 26.0.3, SVG Export Plug-In . SVG Version: 6.00 Build 0)  -->
<svg version="1.1" id="Capa_1" xmlns="http://www.w3.org/2000/svg" xmlns:xlink="http://www.w3.org/1999/xlink" x="0px" y="0px"
	 viewBox="0 0 8 6.7" style="enable-background:new 0 0 8 6.7;" xml:space="preserve">
<style type="text/css">
	.st0{fill:#044B44;}
	.st1{fill:#FFFFFF;}
</style>
<g>
	<path class="st0" d="M7.7,6.7H0.3C0.2,6.7,0,6.5,0,6.4v-6C0,0.2,0.2,0,0.3,0h0h7.3C7.8,0,8,0.2,8,0.3v6C8,6.5,7.8,6.7,7.7,6.7z"/>
	<path class="st1" d="M4.1,5.9v0.3H0.5c0-0.1,0-0.2,0-0.4c0-0.7,0-1.4,0-2c0-0.2,0.1-0.5,0.3-0.6C1,3,1.2,2.9,1.5,2.9
		c0.4,0,0.8,0,1.2,0c0,0,0,0,0,0V1.3H1.8c0,0.1,0,0.2,0,0.3c0,0.2,0,0.4,0,0.6c0,0,0,0.1-0.1,0.1c-0.4,0-0.8,0-1.2,0c0,0,0,0,0,0
		c0-0.1,0-0.3,0-0.4c0-0.2,0-0.4,0-0.7c0-0.1,0-0.2,0-0.3c0-0.2,0.2-0.3,0.4-0.3c0.1,0,0.3-0.1,0.4-0.1c0.7,0,1.3,0,2,0
		c0.1,0,0.3,0,0.4,0C3.8,0.6,4,0.7,4,0.9c0,0,0,0,0,0c0-0.2,0.2-0.3,0.4-0.3c0.2-0.1,0.5,0,0.8,0c0.5,0,1,0,1.6,0
		c0.1,0,0.3,0,0.4,0.1c0.2,0,0.3,0.2,0.4,0.4c0,0.4,0,0.8,0,1.2H6.2v-1H5.4v1.6c0.2,0,0.4,0,0.6,0c0.3,0,0.6,0,0.9,0
		c0.1,0,0.2,0,0.3,0.1c0.2,0.1,0.3,0.3,0.3,0.5c0,0.6,0,1.2,0,1.8c0,0.1,0,0.3-0.1,0.4C7.5,6,7.2,6.1,7,6.2c-0.2,0-0.5,0-0.7,0
		c-0.5,0-1,0-1.5,0c-0.1,0-0.2,0-0.3,0C4.3,6.1,4.1,6,4.1,5.9 M4,3.2c0,0,0,0.1-0.1,0.1C3.8,3.5,3.5,3.6,3.2,3.6c-0.4,0-0.7,0-1.1,0
		c-0.1,0-0.1,0-0.2,0v1.8H4V3.2z M5.4,5.5h0.9V3.6H5.4V5.5z M5.1,3c0-0.1,0-0.3,0-0.4c0-0.1-0.1-0.2-0.2-0.2c-0.1,0-0.2,0.1-0.2,0.2
		c0,0.1,0,0.2,0,0.3c0,0,0,0.1-0.1,0.1c0,0-0.1,0-0.1-0.1c0,0,0-0.1,0-0.1c0-0.1,0-0.2,0-0.3H4.5c0,0.2,0,0.3,0,0.5
		C4.5,2.9,4.5,3,4.6,3c0.1,0,0.2-0.1,0.2-0.2c0-0.1,0-0.2,0-0.3c0-0.1,0-0.1,0.1-0.1C5,2.4,5,2.5,5,2.5c0,0,0,0,0,0C5,2.7,5,2.8,5,3
		H5.1z M4.9,3.8c0-0.1,0-0.2,0-0.3c0-0.1-0.1-0.2-0.2-0.2c-0.1,0-0.2,0-0.2,0.1c0,0.2,0,0.3,0,0.5h0.6V3.8H4.6c0-0.1,0-0.2,0-0.3
		c0-0.1,0-0.1,0.1-0.1c0.1,0,0.1,0,0.1,0.1c0,0.1,0,0.2,0,0.2H4.9z M5.1,1C4.9,1.1,4.7,1.2,4.5,1.3c-0.1,0-0.1,0.1,0,0.1
		c0.1,0.1,0.3,0.1,0.4,0.2C5,1.7,5,1.7,5.1,1.8c0-0.1,0-0.1-0.1-0.2C4.9,1.5,4.8,1.5,4.6,1.4c0.1,0,0.2-0.1,0.2-0.1
		c0,0.1,0,0.2,0.1,0.2c0-0.1,0-0.1,0-0.2c0-0.1,0-0.1,0.1-0.1C5.1,1.1,5.1,1.1,5.1,1 M5.1,4.3C5.1,4.3,5.1,4.3,5.1,4.3
		C4.9,4.4,4.7,4.5,4.5,4.6c-0.1,0-0.1,0.1,0,0.1c0.1,0.1,0.2,0.1,0.3,0.2C4.9,5,5,5,5.1,5.1c0-0.1,0-0.1-0.1-0.2
		C5,4.9,4.9,4.8,4.9,4.8c-0.1,0-0.2-0.1-0.2-0.1c0.1,0,0.2-0.1,0.2-0.1c0,0.1,0,0.1,0,0.1c0,0.1,0,0.1,0.1,0.1c0-0.1,0-0.1,0-0.2
		c0-0.1,0-0.1,0.1-0.1C5.1,4.4,5.1,4.4,5.1,4.3 M4.5,1.7v0.6h0.1V2h0.5V1.9H4.6V1.7H4.5z M4.5,5.6h0.6V5.1H5v0.4L4.5,5.6L4.5,5.6z
		 M4.5,3.2h0.6V3.1H4.5V3.2z"/>
</g>
</svg>
