<?xml version="1.0" encoding="utf-8"?>
<!-- Generator: Adobe Illustrator 26.0.3, SVG Export Plug-In . SVG Version: 6.00 Build 0)  -->
<svg version="1.1" id="Capa_1" xmlns="http://www.w3.org/2000/svg" xmlns:xlink="http://www.w3.org/1999/xlink" x="0px" y="0px"
	 viewBox="0 0 481.1 402.9" style="enable-background:new 0 0 481.1 402.9;" xml:space="preserve">
<style type="text/css">
	.st0{fill:#054B44;}
	.st1{fill:#FFFFFF;}
</style>
<g>
	<path class="st0" d="M460.4,402.9H20.7C9.3,402.9,0,393.6,0,382.2V20.7C0,9.3,9.3,0,20.7,0h0h439.7c11.4,0,20.7,9.3,20.7,20.7
		v361.5C481.1,393.6,471.8,402.9,460.4,402.9z"/>
	<path class="st1" d="M243.9,352.6v18.7H30.3c0-7.5,0-14.7,0-22c0-40.8,0.1-81.5,0-122.3c0-15,6.2-27.2,17-37.1
		c12-11.1,26-16.3,42.6-15.9c23.5,0.5,47,0.1,70.4,0.1c0.5,0,1.1-0.1,1.9-0.1V76h-51.4c0,6.4,0,12.6,0,18.9c0,11.7,0,23.3,0.1,35
		c0,2.8-0.5,4.3-3.9,4.3C82,134,57,134,31.9,134c-0.7,0-1.3-0.2-2.6-0.4c0-8.1,0-16.1,0-24c0-13.2-0.1-26.4,0.2-39.6
		c0.1-5.4,0.8-10.9,2.1-16.2C34.5,42.7,42.8,37.1,53.3,35c8.2-1.7,16.6-3.2,25-3.2c39.4-0.3,78.7-0.3,118.1,0
		c7.5,0,15.1,1.1,22.5,2.7c11.7,2.4,21,8,23.4,21.5c0.7-0.8,1.2-1.1,1.3-1.6c3-12.6,12.4-17.7,23.9-20.2c15-3.3,30.2-2.6,45.3-2.6
		c31.4,0,62.7-0.2,94.1,0.3c9,0.1,18.1,1.9,27,3.8c13.7,2.8,21,12.3,21.5,25.6c0.8,23.8,0.2,47.7,0.2,72h-80.7V75.5h-51.5v98
		c12,0,24-0.1,35.9,0c18.7,0.1,37.4,0.1,56.1,0.8c7.1,0.3,14.4,1.5,21,3.9c14.4,5.4,20.1,17.1,20.1,31.9c0,37,0.1,73.9-0.2,110.9
		c-0.1,7.8-1,15.8-3.1,23.3c-4.8,17-18.1,24.3-34.3,26c-14.3,1.5-28.9,1.2-43.3,1.2c-29.1,0.1-58.2,0.1-87.3-0.1
		c-6.3,0-12.6-0.8-18.8-2C258.7,367.3,249.1,363.4,243.9,352.6 M241.2,189.5c-1.7,2.5-2.7,4.3-4,6c-11.6,15.7-27.4,22.4-46.6,22.3
		c-22.5-0.1-45-0.1-67.5-0.1c-4,0-8.1,0-12.1,0v110h130.1V189.5z M322.9,327.8h51.5V218h-51.5V327.8z M307.1,179.1
		c0-8.9,0-17.6,0-26.2c0-8.1-3.9-12.6-11.2-12.7c-7.6-0.1-11.4,4.1-11.5,12.3c0,5.5-0.1,10.9-0.1,16.4c0,2.8-1.5,4-4.1,4.2
		c-2.8,0.2-4.7-0.9-5.1-3.8c-0.3-2.1-0.1-4.2-0.1-6.3c0-7,0-13.9,0-21h-6.5c0,9.7-0.4,19.2,0.1,28.7c0.3,5.9,4.5,9,10.2,9
		c7,0,11.1-3.8,11.3-10.7c0.2-5.8,0-11.5,0.1-17.3c0-3.2,1.5-5.6,4.9-5.5c3.6,0.1,5.2,2.4,5.1,5.9c0,1-0.1,2-0.1,2.9
		c0,7.9,0,15.9,0,24H307.1z M296.2,226.1c0-6,0.4-11.8-0.1-17.5c-0.6-6.4-6.1-10.7-12.9-11c-7.1-0.3-13.4,3-13.9,8.9
		c-0.8,10.1-0.2,20.3-0.2,30.5h37.8v-6.6h-31.8c0-6.4-0.1-12.3,0-18.2c0.1-5.5,2.2-8,6.9-8.3c4.9-0.3,7.6,2.2,7.8,7.7
		c0.3,4.7,0.1,9.5,0.1,14.4H296.2z M306.6,58.9c-12.3,7-24.4,13.8-36.3,20.8c-3.4,2-3.2,4.6,0.4,6.7c7.7,4.5,15.5,9,23.3,13.4
		c4.2,2.4,8.4,4.7,12.8,7.2c0.6-6.9,0.6-6.9-4.8-9.9c-8-4.5-16.1-9-24.7-13.9c5.1-2.9,9.6-5.5,14.2-8c1.7,4.9-2.6,11.6,5.9,13.6
		c0-4.1,0.2-7.9-0.1-11.6c-0.3-3.8,0.9-6.5,4.6-7.9C306.6,67.5,308.3,64.3,306.6,58.9 M306.7,256.8c-1.1,0.5-2.3,1-3.3,1.6
		c-10.7,6.1-21.4,12.3-32.1,18.5c-4.6,2.7-4.6,5.2,0.1,7.9c6.2,3.6,12.4,7.1,18.6,10.6c5.6,3.1,11.1,6.2,16.6,9.3
		c1.7-5.1-0.2-8-4.6-9.9c-3.6-1.6-7-3.6-10.4-5.6c-4.5-2.6-9-5.3-14.2-8.4c5-2.9,9.4-5.3,14.4-8.2c0,3.3,0.1,5.9,0,8.5
		c-0.3,3.9,2.3,4.3,5.5,5.1c0-4.4,0.2-8.5-0.1-12.5c-0.3-3.6,1.4-5.6,4.4-6.6C306.6,265.4,308.3,262.1,306.7,256.8 M268.5,102.3
		v34.3h6.7v-14.1h31.6v-6.4H275v-13.8H268.5z M268.4,338.3h38.4v-30.8h-6.5v24.8h-31.9V338.3z M268.5,192.4h38.5v-6h-38.5V192.4z"/>
</g>
</svg>
