<?xml version="1.0" encoding="utf-8"?>
<!-- Generator: Adobe Illustrator 26.0.3, SVG Export Plug-In . SVG Version: 6.00 Build 0)  -->
<svg version="1.1" id="Capa_1" xmlns="http://www.w3.org/2000/svg" xmlns:xlink="http://www.w3.org/1999/xlink" x="0px" y="0px"
	 viewBox="0 0 832.8 152.6" style="enable-background:new 0 0 832.8 152.6;" xml:space="preserve">
<style type="text/css">
	.st0{fill:#054B44;}
	.st1{fill:#FFFFFF;}
</style>
<path class="st0" d="M191.9,152.6H25.4c-4.3,0-7.8-3.5-7.8-7.8V7.8c0-4.3,3.5-7.8,7.8-7.8h0h166.5c4.3,0,7.8,3.5,7.8,7.8v136.9
	C199.7,149.1,196.2,152.6,191.9,152.6z"/>
<path class="st1" d="M109.9,133.4v7.1H29c0-2.8,0-5.6,0-8.3c0-15.4,0-30.9,0-46.3c0-5.7,2.4-10.3,6.4-14.1c4.5-4.2,9.9-6.2,16.1-6
	c8.9,0.2,17.8,0,26.7,0c0.2,0,0.4,0,0.7,0V28.7H59.5c0,2.4,0,4.8,0,7.2c0,4.4,0,8.8,0.1,13.2c0,1.1-0.2,1.6-1.5,1.6
	c-9.5,0-19,0-28.4,0c-0.3,0-0.5-0.1-1-0.1c0-3.1,0-6.1,0-9.1c0-5,0-10,0.1-15c0.1-2.1,0.3-4.1,0.8-6.1c1.1-4.2,4.2-6.3,8.2-7.1
	c3.1-0.6,6.3-1.2,9.5-1.2c14.9-0.1,29.8-0.1,44.7,0c2.8,0,5.7,0.4,8.5,1c4.4,0.9,8,3,8.9,8.1c0.3-0.3,0.5-0.4,0.5-0.6
	c1.1-4.8,4.7-6.7,9-7.6c5.7-1.2,11.4-1,17.2-1c11.9,0,23.7-0.1,35.6,0.1c3.4,0.1,6.8,0.7,10.2,1.4c5.2,1.1,8,4.7,8.1,9.7
	c0.3,9,0.1,18.1,0.1,27.3h-30.5V28.5H140v37.1c4.6,0,9.1,0,13.6,0c7.1,0.1,14.2,0,21.2,0.3c2.7,0.1,5.5,0.5,7.9,1.5
	c5.5,2,7.6,6.5,7.6,12.1c0,14,0,28-0.1,42c0,2.9-0.4,6-1.2,8.8c-1.8,6.4-6.9,9.2-13,9.8c-5.4,0.6-10.9,0.4-16.4,0.5
	c-11,0.1-22,0.1-33.1,0c-2.4,0-4.8-0.3-7.1-0.8C115.5,139,111.9,137.5,109.9,133.4 M108.9,71.7c-0.6,1-1,1.6-1.5,2.3
	c-4.4,6-10.4,8.5-17.6,8.5c-8.5,0-17,0-25.5,0c-1.5,0-3,0-4.6,0v41.7h49.3V71.7z M139.8,124.1h19.5V82.5h-19.5V124.1z M133.9,67.8
	c0-3.4,0-6.7,0-9.9c0-3.1-1.5-4.8-4.2-4.8c-2.9,0-4.3,1.5-4.3,4.7c0,2.1,0,4.1,0,6.2c0,1.1-0.6,1.5-1.6,1.6
	c-1.1,0.1-1.8-0.3-1.9-1.4c-0.1-0.8,0-1.6,0-2.4c0-2.6,0-5.3,0-7.9h-2.5c0,3.7-0.1,7.3,0.1,10.9c0.1,2.2,1.7,3.4,3.9,3.4
	c2.6,0,4.2-1.4,4.3-4.1c0.1-2.2,0-4.4,0-6.5c0-1.2,0.6-2.1,1.9-2.1c1.4,0,2,0.9,1.9,2.2c0,0.4,0,0.7,0,1.1c0,3,0,6,0,9.1H133.9z
	 M129.7,85.6c0-2.3,0.2-4.5,0-6.6c-0.2-2.4-2.3-4.1-4.9-4.2c-2.7-0.1-5.1,1.1-5.3,3.4c-0.3,3.8-0.1,7.7-0.1,11.5h14.3v-2.5h-12
	c0-2.4,0-4.7,0-6.9c0-2.1,0.8-3,2.6-3.1c1.8-0.1,2.9,0.8,3,2.9c0.1,1.8,0,3.6,0,5.5H129.7z M133.7,22.2c-4.7,2.7-9.2,5.2-13.7,7.9
	c-1.3,0.8-1.2,1.7,0.2,2.5c2.9,1.7,5.9,3.4,8.8,5.1c1.6,0.9,3.2,1.8,4.9,2.7c0.2-2.6,0.2-2.6-1.8-3.8c-3-1.7-6.1-3.4-9.4-5.3
	c1.9-1.1,3.6-2.1,5.4-3c0.6,1.9-1,4.4,2.2,5.1c0-1.5,0.1-3,0-4.4c-0.1-1.4,0.3-2.5,1.7-3C133.7,25.5,134.3,24.3,133.7,22.2
	 M133.7,97.2c-0.4,0.2-0.9,0.4-1.3,0.6c-4.1,2.3-8.1,4.7-12.1,7c-1.8,1-1.7,2,0,3c2.3,1.3,4.7,2.7,7,4c2.1,1.2,4.2,2.4,6.3,3.5
	c0.6-1.9-0.1-3-1.7-3.8c-1.4-0.6-2.6-1.4-3.9-2.1c-1.7-1-3.4-2-5.4-3.2c1.9-1.1,3.5-2,5.4-3.1c0,1.3,0.1,2.2,0,3.2
	c-0.1,1.5,0.9,1.6,2.1,1.9c0-1.7,0.1-3.2,0-4.7c-0.1-1.4,0.5-2.1,1.7-2.5C133.7,100.4,134.3,99.2,133.7,97.2 M119.2,38.7v13h2.5
	v-5.3h12v-2.4h-12v-5.2H119.2z M119.2,128.1h14.5v-11.7h-2.5v9.4h-12.1V128.1z M119.2,72.8h14.6v-2.3h-14.6V72.8z"/>
<g>
	<path class="st1" d="M278.9,65.2l-8.2-32l-12.2,29.6c-0.4,1-1,1.7-1.6,2.2c-0.6,0.5-1.4,0.8-2.3,0.8c-1.8,0-3.1-1-3.8-3l-12.1-29.6
		l-8.2,32H223l11.1-42.8c0.5-2.2,1.8-3.3,3.7-3.3c0.8,0,1.5,0.2,2.2,0.7c0.7,0.5,1.2,1.1,1.6,2L254.9,54l13.3-32.2
		c0.7-1.8,1.9-2.7,3.6-2.7c1.8,0,3,1.1,3.6,3.3l11,42.8H278.9z"/>
	<path class="st1" d="M336.2,65.2l-6.5-11.5h-20.4l3.6-6.5h13.2l-9.6-17l-19.5,35h-8.6l24.8-43.6c0.4-0.8,0.9-1.4,1.5-1.9
		c0.6-0.5,1.3-0.7,2.1-0.7c0.8,0,1.5,0.2,2.1,0.7c0.6,0.5,1.1,1.1,1.5,1.9l24.8,43.6H336.2z"/>
	<path class="st1" d="M356.1,65.2V27.6h-16.3v-8h40.2v8h-16.3v37.6H356.1z"/>
	<path class="st1" d="M384.9,65.2V19.6h38.4v8h-31v29.6h31v8H384.9z M397.9,45.4v-6.7h23.9v6.7H397.9z"/>
	<path class="st1" d="M469.8,65.2l-10.9-12.7h-16.1v-7h17.9c2.7,0,4.8-0.8,6.2-2.3c1.4-1.6,2.1-3.8,2.1-6.8c0-3-0.7-5.2-2.2-6.6
		c-1.4-1.4-3.5-2.2-6.1-2.2h-23.4v37.6h-7.5V19.6h30.9c2.4,0,4.6,0.4,6.6,1.2c1.9,0.8,3.6,1.9,4.9,3.3c1.3,1.4,2.4,3.2,3.1,5.2
		c0.7,2,1.1,4.3,1.1,6.9c0,3.8-0.8,7-2.3,9.6c-1.6,2.6-3.7,4.4-6.5,5.5l13,13.8H469.8z"/>
	<path class="st1" d="M484.8,65.2V19.6h7.5v45.5H484.8z"/>
	<path class="st1" d="M545.1,65.2l-6.5-11.5h-20.4l3.6-6.5H535l-9.6-17l-19.5,35h-8.6L522,21.6c0.4-0.8,0.9-1.4,1.5-1.9
		c0.6-0.5,1.3-0.7,2.1-0.7s1.5,0.2,2.1,0.7c0.6,0.5,1.1,1.1,1.5,1.9l24.8,43.6H545.1z"/>
	<path class="st1" d="M558.8,65.2V19.6h7.5v37.6h29v8H558.8z"/>
	<path class="st1" d="M600.6,65.2V19.6h38.4v8h-31v29.6h31v8H600.6z M613.6,45.4v-6.7h23.9v6.7H613.6z"/>
	<path class="st1" d="M645.6,65.2v-8h32.3c2,0,3.6-0.5,4.6-1.6c1.1-1.1,1.6-2.5,1.6-4.3c0-2-0.5-3.4-1.6-4.4c-1.1-1-2.6-1.5-4.6-1.5
		h-19.8c-2,0-3.8-0.3-5.5-1c-1.6-0.6-3-1.5-4.1-2.7c-1.1-1.1-2-2.5-2.6-4.1c-0.6-1.6-0.9-3.3-0.9-5.2c0-1.8,0.3-3.5,0.9-5.1
		c0.6-1.6,1.4-2.9,2.5-4c1.1-1.1,2.5-2,4.2-2.7c1.7-0.6,3.6-1,5.7-1h30.9v8h-30.9c-1.7,0-3.1,0.5-4,1.5c-0.9,1-1.4,2.3-1.4,4.1
		c0,1.8,0.5,3.1,1.5,4.1c1,1,2.3,1.4,3.9,1.4h19.7c4.4,0,7.7,1.1,10,3.3c2.3,2.2,3.4,5.5,3.4,9.9c0,1.9-0.3,3.7-0.8,5.3
		c-0.6,1.6-1.4,3-2.5,4.2c-1.1,1.2-2.5,2.1-4.2,2.8c-1.7,0.7-3.6,1-5.9,1H645.6z"/>
	<path class="st1" d="M715.1,65.2V19.6H740c3,0,5.8,0.5,8.4,1.6c2.6,1.1,4.8,2.6,6.6,4.6c1.9,2,3.3,4.3,4.4,7c1,2.7,1.6,5.8,1.6,9.1
		c0,3.3-0.5,6.4-1.6,9.2c-1,2.8-2.5,5.3-4.4,7.4c-1.9,2.1-4.1,3.7-6.6,4.9c-2.6,1.2-5.4,1.8-8.4,1.8H715.1z M740,57.2
		c1.9,0,3.7-0.4,5.4-1.1c1.6-0.8,3.1-1.8,4.3-3.1c1.2-1.3,2.1-2.9,2.8-4.7c0.7-1.8,1-3.8,1-6c0-2.1-0.3-4.1-1-5.9
		c-0.7-1.8-1.6-3.4-2.8-4.7c-1.2-1.3-2.6-2.3-4.3-3c-1.6-0.7-3.4-1.1-5.4-1.1h-17.5v29.6H740z"/>
	<path class="st1" d="M767.1,65.2V19.6h38.4v8h-31v29.6h31v8H767.1z M780.1,45.4v-6.7H804v6.7H780.1z"/>
	<path class="st1" d="M245,140.3c-3,0-5.8-0.6-8.3-1.8c-2.5-1.2-4.8-2.8-6.6-4.9c-1.9-2.1-3.3-4.5-4.4-7.4c-1-2.8-1.6-5.9-1.6-9.2
		c0-3.3,0.5-6.4,1.6-9.1c1-2.8,2.5-5.1,4.4-7c1.9-1.9,4.1-3.4,6.6-4.5c2.5-1.1,5.3-1.6,8.3-1.6h23.3v8H245c-1.9,0-3.7,0.4-5.4,1.1
		c-1.6,0.7-3,1.7-4.2,3c-1.2,1.3-2.1,2.8-2.8,4.6c-0.7,1.8-1,3.8-1,6c0,2.1,0.3,4.1,1,6c0.7,1.8,1.6,3.4,2.8,4.7
		c1.2,1.3,2.6,2.3,4.2,3.1c1.6,0.8,3.4,1.1,5.4,1.1h23.3v8H245z"/>
	<path class="st1" d="M294.1,140.3c-3,0-5.8-0.6-8.3-1.8s-4.8-2.8-6.6-4.9c-1.9-2.1-3.3-4.5-4.4-7.4c-1-2.8-1.6-5.9-1.6-9.2
		c0-3.3,0.5-6.4,1.6-9.1c1-2.8,2.5-5.1,4.4-7c1.9-1.9,4.1-3.4,6.6-4.5s5.3-1.6,8.3-1.6h10.5c3.1,0,6,0.5,8.6,1.6
		c2.6,1.1,4.8,2.6,6.7,4.6c1.9,2,3.3,4.3,4.3,7c1,2.7,1.5,5.8,1.5,9.1c0,3.3-0.5,6.4-1.6,9.2c-1,2.8-2.5,5.3-4.4,7.4
		c-1.9,2.1-4.1,3.7-6.7,4.9c-2.6,1.2-5.4,1.8-8.5,1.8H294.1z M304.5,132.4c2,0,3.8-0.4,5.4-1.1c1.7-0.8,3.1-1.8,4.3-3.1
		c1.2-1.3,2.1-2.9,2.8-4.7c0.7-1.8,1-3.8,1-6c0-2.1-0.3-4.1-1-5.9c-0.7-1.8-1.6-3.4-2.8-4.7c-1.2-1.3-2.6-2.3-4.3-3
		c-1.7-0.7-3.5-1.1-5.4-1.1h-10.5c-1.9,0-3.7,0.4-5.4,1.1c-1.6,0.7-3,1.7-4.2,3c-1.2,1.3-2.1,2.8-2.8,4.6c-0.7,1.8-1,3.8-1,6
		c0,2.1,0.3,4.1,1,6c0.7,1.8,1.6,3.4,2.8,4.7c1.2,1.3,2.6,2.3,4.2,3.1c1.6,0.8,3.4,1.1,5.4,1.1H304.5z"/>
	<path class="st1" d="M338.7,107v33.3h-7.2V99c0-1.5,0.3-2.6,1-3.5c0.7-0.9,1.6-1.3,2.8-1.3c0.6,0,1.1,0.1,1.6,0.4
		c0.5,0.3,1,0.7,1.6,1.3l30.4,31.9V94.4h7.2v41.7c0,1.5-0.3,2.7-1,3.5c-0.7,0.8-1.6,1.3-2.7,1.3c-1.2,0-2.4-0.6-3.4-1.7L338.7,107z"
		/>
	<path class="st1" d="M383.4,140.3v-8h32.3c2,0,3.6-0.5,4.6-1.6c1.1-1.1,1.6-2.5,1.6-4.3c0-2-0.5-3.4-1.6-4.4
		c-1.1-1-2.6-1.5-4.6-1.5h-19.8c-2,0-3.8-0.3-5.5-1c-1.6-0.6-3-1.5-4.1-2.7c-1.1-1.1-2-2.5-2.6-4.1c-0.6-1.6-0.9-3.3-0.9-5.2
		c0-1.8,0.3-3.5,0.9-5.1c0.6-1.6,1.4-2.9,2.5-4c1.1-1.1,2.5-2,4.2-2.7c1.7-0.6,3.6-1,5.7-1h30.9v8H396c-1.7,0-3.1,0.5-4,1.5
		c-0.9,1-1.4,2.3-1.4,4.1c0,1.8,0.5,3.1,1.5,4.1c1,1,2.3,1.4,3.9,1.4h19.7c4.4,0,7.7,1.1,10,3.3c2.3,2.2,3.4,5.5,3.4,9.9
		c0,1.9-0.3,3.7-0.8,5.3c-0.6,1.6-1.4,3-2.5,4.2c-1.1,1.2-2.5,2.1-4.2,2.8c-1.7,0.7-3.6,1-5.9,1H383.4z"/>
	<path class="st1" d="M449.3,140.3v-37.6H433v-8h40.2v8h-16.3v37.6H449.3z"/>
	<path class="st1" d="M518.1,140.3l-10.9-12.7h-16.1v-7h17.9c2.7,0,4.8-0.8,6.2-2.3c1.4-1.6,2.1-3.8,2.1-6.8c0-3-0.7-5.2-2.2-6.6
		c-1.4-1.4-3.5-2.2-6.1-2.2h-23.4v37.6h-7.5V94.8h30.9c2.4,0,4.6,0.4,6.6,1.2c1.9,0.8,3.6,1.9,4.9,3.3c1.3,1.4,2.4,3.2,3.1,5.2
		c0.7,2,1.1,4.3,1.1,6.9c0,3.8-0.8,7-2.3,9.6c-1.6,2.6-3.7,4.4-6.5,5.5l13,13.8H518.1z"/>
	<path class="st1" d="M569.8,94.8h7.3v25.4c0,3.5-0.4,6.6-1.3,9.2c-0.9,2.6-2.2,4.8-4.1,6.5c-1.9,1.7-4.3,3-7.2,3.8
		c-2.9,0.8-6.5,1.3-10.7,1.3c-4.1,0-7.7-0.4-10.6-1.3c-2.9-0.8-5.3-2.1-7.2-3.8c-1.9-1.7-3.2-3.9-4.1-6.5c-0.9-2.6-1.3-5.7-1.3-9.2
		V94.8h7.8v25.4c0,2.3,0.3,4.3,0.8,5.9c0.5,1.6,1.4,3,2.6,4c1.2,1,2.8,1.8,4.8,2.3c2,0.5,4.5,0.7,7.5,0.7c3,0,5.4-0.2,7.5-0.7
		c2-0.5,3.6-1.2,4.8-2.3c1.2-1,2.1-2.4,2.6-4c0.5-1.6,0.8-3.6,0.8-5.9V94.8z"/>
	<path class="st1" d="M603.6,140.3c-3,0-5.8-0.6-8.3-1.8s-4.8-2.8-6.6-4.9c-1.9-2.1-3.3-4.5-4.4-7.4c-1-2.8-1.6-5.9-1.6-9.2
		c0-3.3,0.5-6.4,1.6-9.1c1-2.8,2.5-5.1,4.4-7c1.9-1.9,4.1-3.4,6.6-4.5s5.3-1.6,8.3-1.6h23.3v8h-23.3c-1.9,0-3.7,0.4-5.4,1.1
		c-1.6,0.7-3,1.7-4.2,3c-1.2,1.3-2.1,2.8-2.8,4.6c-0.7,1.8-1,3.8-1,6c0,2.1,0.3,4.1,1,6c0.7,1.8,1.6,3.4,2.8,4.7
		c1.2,1.3,2.6,2.3,4.2,3.1c1.6,0.8,3.4,1.1,5.4,1.1h23.3v8H603.6z"/>
	<path class="st1" d="M652.7,140.3c-3,0-5.8-0.6-8.3-1.8s-4.8-2.8-6.6-4.9c-1.9-2.1-3.3-4.5-4.4-7.4c-1-2.8-1.6-5.9-1.6-9.2
		c0-3.3,0.5-6.4,1.6-9.1c1-2.8,2.5-5.1,4.4-7c1.9-1.9,4.1-3.4,6.6-4.5s5.3-1.6,8.3-1.6H676v8h-23.3c-1.9,0-3.7,0.4-5.4,1.1
		c-1.6,0.7-3,1.7-4.2,3c-1.2,1.3-2.1,2.8-2.8,4.6c-0.7,1.8-1,3.8-1,6c0,2.1,0.3,4.1,1,6c0.7,1.8,1.6,3.4,2.8,4.7
		c1.2,1.3,2.6,2.3,4.2,3.1c1.6,0.8,3.4,1.1,5.4,1.1H676v8H652.7z"/>
	<path class="st1" d="M682.5,140.3V94.8h7.5v45.5H682.5z"/>
	<path class="st1" d="M717.6,140.3c-3,0-5.8-0.6-8.3-1.8c-2.5-1.2-4.8-2.8-6.6-4.9c-1.9-2.1-3.3-4.5-4.4-7.4c-1-2.8-1.6-5.9-1.6-9.2
		c0-3.3,0.5-6.4,1.6-9.1c1-2.8,2.5-5.1,4.4-7c1.9-1.9,4.1-3.4,6.6-4.5c2.5-1.1,5.3-1.6,8.3-1.6h10.5c3.1,0,6,0.5,8.6,1.6
		c2.6,1.1,4.8,2.6,6.7,4.6c1.9,2,3.3,4.3,4.3,7c1,2.7,1.5,5.8,1.5,9.1c0,3.3-0.5,6.4-1.6,9.2c-1,2.8-2.5,5.3-4.4,7.4
		c-1.9,2.1-4.1,3.7-6.7,4.9c-2.6,1.2-5.4,1.8-8.5,1.8H717.6z M728.1,132.4c2,0,3.8-0.4,5.4-1.1c1.7-0.8,3.1-1.8,4.3-3.1
		c1.2-1.3,2.1-2.9,2.8-4.7c0.7-1.8,1-3.8,1-6c0-2.1-0.3-4.1-1-5.9c-0.7-1.8-1.6-3.4-2.8-4.7c-1.2-1.3-2.6-2.3-4.3-3
		c-1.7-0.7-3.5-1.1-5.4-1.1h-10.5c-1.9,0-3.7,0.4-5.4,1.1c-1.6,0.7-3,1.7-4.2,3c-1.2,1.3-2.1,2.8-2.8,4.6c-0.7,1.8-1,3.8-1,6
		c0,2.1,0.3,4.1,1,6c0.7,1.8,1.6,3.4,2.8,4.7c1.2,1.3,2.6,2.3,4.2,3.1c1.6,0.8,3.4,1.1,5.4,1.1H728.1z"/>
	<path class="st1" d="M762.2,107v33.3h-7.2V99c0-1.5,0.3-2.6,1-3.5c0.7-0.9,1.6-1.3,2.8-1.3c0.6,0,1.1,0.1,1.6,0.4
		c0.5,0.3,1,0.7,1.6,1.3l30.4,31.9V94.4h7.2v41.7c0,1.5-0.3,2.7-1,3.5c-0.7,0.8-1.6,1.3-2.7,1.3c-1.2,0-2.4-0.6-3.4-1.7L762.2,107z"
		/>
</g>
</svg>
