<svg id="Capa_1" data-name="Capa 1" xmlns="http://www.w3.org/2000/svg" viewBox="0 0 481.1 518.39"><defs><style>.cls-1{fill:#054b44;}.cls-2{fill:#fff;}</style></defs><path class="cls-1" d="M637.34,448.32H197.66A20.72,20.72,0,0,1,177,427.6V66.11a20.72,20.72,0,0,1,20.71-20.72H637.34a20.72,20.72,0,0,1,20.71,20.72V427.6A20.72,20.72,0,0,1,637.34,448.32Z" transform="translate(-176.95 -45.39)"/><path class="cls-2" d="M420.84,398v18.68H207.22v-22q0-61.16,0-122.3c0-15,6.21-27.19,17-37.14,12-11.07,26-16.29,42.59-15.93,23.47.5,46.95.13,70.43.12.55,0,1.1-.07,1.9-.12V121.35H287.72c0,6.37,0,12.64,0,18.9,0,11.65,0,23.31.14,35,0,2.83-.53,4.34-3.9,4.32-25-.13-50.06-.09-75.08-.12a21.1,21.1,0,0,1-2.59-.38c0-8.07,0-16.05,0-24,0-13.21-.12-26.43.21-39.64a74.16,74.16,0,0,1,2.13-16.18c2.78-11.08,11.1-16.65,21.58-18.84,8.2-1.72,16.63-3.18,25-3.25q59-.5,118.09,0a115.54,115.54,0,0,1,22.51,2.68c11.66,2.43,21,8,23.42,21.46.67-.78,1.19-1.11,1.29-1.55,3-12.65,12.44-17.68,23.88-20.2,14.95-3.3,30.17-2.61,45.32-2.61,31.36,0,62.71-.19,94.06.31,9,.14,18.09,1.94,27,3.75,13.68,2.79,21,12.33,21.49,25.58.81,23.84.23,47.72.23,72H551.77V120.85H500.23v98c12,0,24-.07,35.87,0,18.7.15,37.4.08,56.07.78a68.86,68.86,0,0,1,21,3.89c14.44,5.36,20.12,17.08,20.13,31.88,0,37,.12,73.94-.22,110.9A89.67,89.67,0,0,1,630,389.58c-4.77,17-18.12,24.32-34.28,26-14.32,1.49-28.86,1.16-43.31,1.24q-43.64.23-87.29-.08a103.37,103.37,0,0,1-18.8-2c-10.59-2.05-20.23-6-25.43-16.78m-2.71-163.08c-1.67,2.55-2.73,4.35-4,6-11.56,15.73-27.45,22.41-46.61,22.34-22.49-.09-45-.08-67.46-.11H288v110H418.13Zm81.71,138.3h51.52V263.38H499.84ZM484.09,224.52c0-8.89,0-17.57,0-26.24,0-8.1-3.94-12.62-11.2-12.68-7.56-.07-11.39,4.06-11.45,12.34,0,5.47-.1,10.95-.1,16.42,0,2.82-1.48,4-4.14,4.21-2.83.22-4.72-.89-5.08-3.76a53,53,0,0,1-.11-6.31c0-7,0-13.93,0-21h-6.55c0,9.72-.39,19.25.14,28.72.33,5.92,4.5,9,10.22,9,7,0,11.12-3.77,11.33-10.74.18-5.75,0-11.51.07-17.27,0-3.21,1.46-5.58,4.94-5.51s5.16,2.39,5.14,5.87c0,1-.06,2-.06,2.95v24Zm-10.93,47c0-6,.41-11.8-.11-17.47-.59-6.38-6.1-10.7-12.91-11-7.06-.33-13.43,3-13.91,8.9-.8,10.09-.22,20.29-.22,30.48h37.82v-6.55H452c0-6.43-.05-12.31,0-18.19.06-5.49,2.23-8,6.86-8.27,4.86-.26,7.56,2.18,7.85,7.69.25,4.72,0,9.46,0,14.42Zm10.38-167.27c-12.3,7-24.37,13.81-36.31,20.81-3.43,2-3.18,4.61.41,6.72,7.74,4.53,15.53,9,23.31,13.42,4.2,2.4,8.43,4.74,12.84,7.22.57-6.93.56-6.91-4.81-9.92-8-4.5-16.07-9-24.72-13.89l14.18-8c1.7,4.89-2.63,11.64,5.88,13.57,0-4.09.21-7.88-.06-11.62s.86-6.55,4.56-7.89c4.74-1.72,6.38-5,4.72-10.39m.11,198c-1.14.52-2.28.95-3.33,1.55q-16.05,9.21-32.06,18.48c-4.62,2.68-4.59,5.2.08,7.88q9.3,5.33,18.62,10.61c5.55,3.15,11.13,6.25,16.65,9.34,1.71-5.12-.23-8-4.6-9.9a112.44,112.44,0,0,1-10.36-5.59c-4.55-2.61-9-5.33-14.16-8.37l14.37-8.16c0,3.32.15,5.93,0,8.52-.27,3.85,2.33,4.31,5.47,5.09,0-4.44.23-8.5-.07-12.52-.28-3.58,1.36-5.57,4.41-6.65,4.91-1.73,6.65-5,5-10.28m-38.2-154.48V182h6.71V168h31.58v-6.45H452V147.74Zm-.07,236h38.38V352.9h-6.52v24.84H445.38Zm0-146h38.49v-6H445.4Z" transform="translate(-176.95 -45.39)"/><path class="cls-1" d="M223.11,501.2l-6.8-26.43-10.07,24.46a5.07,5.07,0,0,1-1.3,1.84,2.79,2.79,0,0,1-1.88.65q-2.2,0-3.18-2.49l-10-24.46-6.8,26.43H177l9.14-35.38c.43-1.79,1.45-2.69,3.08-2.69a3.27,3.27,0,0,1,1.84.57,3.48,3.48,0,0,1,1.29,1.65l11,26.59,11-26.59a3.06,3.06,0,0,1,3-2.22c1.5,0,2.5.9,3,2.69l9.1,35.38Z" transform="translate(-176.95 -45.39)"/><path class="cls-1" d="M270.44,501.2l-5.33-9.47H248.29l2.93-5.32h10.91l-7.92-14.07L238.07,501.2H231l20.44-36a4.85,4.85,0,0,1,1.27-1.55,2.79,2.79,0,0,1,1.76-.57,2.7,2.7,0,0,1,1.74.57,5.07,5.07,0,0,1,1.24,1.55l20.49,36Z" transform="translate(-176.95 -45.39)"/><path class="cls-1" d="M286.82,501.2v-31H273.33V463.6h33.2v6.56H293v31Z" transform="translate(-176.95 -45.39)"/><path class="cls-1" d="M310.63,501.2V463.6h31.74v6.56H316.8v24.47h25.62v6.57Zm10.71-16.35v-5.53h19.71v5.53Z" transform="translate(-176.95 -45.39)"/><path class="cls-1" d="M380.75,501.2l-9-10.45h-13.3V485h14.81a6.44,6.44,0,0,0,5.09-1.94,8.25,8.25,0,0,0,1.71-5.61q0-3.68-1.79-5.46a6.78,6.78,0,0,0-5-1.79H353.91v31h-6.16V463.6h25.52a14.52,14.52,0,0,1,5.43.95,11.09,11.09,0,0,1,4.06,2.74,12.05,12.05,0,0,1,2.54,4.32,17.21,17.21,0,0,1,.88,5.69,14.93,14.93,0,0,1-1.93,7.89,11,11,0,0,1-5.4,4.58l10.7,11.43Z" transform="translate(-176.95 -45.39)"/><path class="cls-1" d="M393.12,501.2V463.6h6.21v37.6Z" transform="translate(-176.95 -45.39)"/><path class="cls-1" d="M442.9,501.2l-5.33-9.47H420.75l2.93-5.32h10.91l-7.92-14.07L410.53,501.2h-7.09l20.44-36a4.85,4.85,0,0,1,1.27-1.55,2.79,2.79,0,0,1,1.76-.57,2.68,2.68,0,0,1,1.74.57,4.93,4.93,0,0,1,1.24,1.55l20.49,36Z" transform="translate(-176.95 -45.39)"/><path class="cls-1" d="M454.2,501.2V463.6h6.21v31h23.91v6.57Z" transform="translate(-176.95 -45.39)"/><path class="cls-1" d="M488.77,501.2V463.6H520.5v6.56H494.93v24.47h25.62v6.57Zm10.71-16.35v-5.53h19.7v5.53Z" transform="translate(-176.95 -45.39)"/><path class="cls-1" d="M525.88,501.2v-6.57h26.65a5.19,5.19,0,0,0,3.84-1.35,4.82,4.82,0,0,0,1.34-3.56,4.7,4.7,0,0,0-1.34-3.65,5.55,5.55,0,0,0-3.84-1.22H536.2a12.14,12.14,0,0,1-4.53-.8,9.64,9.64,0,0,1-3.42-2.22,9.76,9.76,0,0,1-2.15-3.39,11.72,11.72,0,0,1-.76-4.29,12.25,12.25,0,0,1,.71-4.22,9,9,0,0,1,2.1-3.33,9.69,9.69,0,0,1,3.45-2.2,12.71,12.71,0,0,1,4.69-.8h25.53v6.56H536.29a4.4,4.4,0,0,0-3.32,1.22,4.69,4.69,0,0,0-1.17,3.39,4.55,4.55,0,0,0,1.19,3.36,4.44,4.44,0,0,0,3.26,1.19h16.28c3.62,0,6.36.9,8.24,2.69s2.81,4.52,2.81,8.17a13.81,13.81,0,0,1-.68,4.4,9.7,9.7,0,0,1-2.06,3.49,9.29,9.29,0,0,1-3.45,2.3,13.08,13.08,0,0,1-4.86.83Z" transform="translate(-176.95 -45.39)"/><path class="cls-1" d="M583.29,501.2V463.6h20.58a17.56,17.56,0,0,1,6.94,1.34,16.1,16.1,0,0,1,5.48,3.78,17.6,17.6,0,0,1,3.6,5.81,20.9,20.9,0,0,1,1.29,7.48,21.89,21.89,0,0,1-1.29,7.6,18.77,18.77,0,0,1-3.6,6.08,16.63,16.63,0,0,1-5.48,4,16.18,16.18,0,0,1-6.94,1.48Zm20.58-6.57a10.53,10.53,0,0,0,4.43-.93,11,11,0,0,0,3.52-2.56,11.8,11.8,0,0,0,2.32-3.91,14.26,14.26,0,0,0,.83-4.91,14.1,14.1,0,0,0-.83-4.89,11.51,11.51,0,0,0-2.32-3.85,10.69,10.69,0,0,0-8-3.42H589.45v24.47Z" transform="translate(-176.95 -45.39)"/><path class="cls-1" d="M626.27,501.2V463.6H658v6.56H632.43v24.47h25.62v6.57ZM637,484.85v-5.53h19.71v5.53Z" transform="translate(-176.95 -45.39)"/><path class="cls-1" d="M195.09,563.27a15.9,15.9,0,0,1-6.87-1.48,17,17,0,0,1-5.48-4,18.47,18.47,0,0,1-3.62-6.08,21.89,21.89,0,0,1-1.29-7.6,21.17,21.17,0,0,1,1.29-7.55,16.89,16.89,0,0,1,3.62-5.82,16.22,16.22,0,0,1,5.48-3.73,17.6,17.6,0,0,1,6.87-1.32h19.27v6.57H195.09a10.67,10.67,0,0,0-4.43.91,10.42,10.42,0,0,0-3.49,2.51,11.53,11.53,0,0,0-2.3,3.82,14.11,14.11,0,0,0-.83,4.92,14.3,14.3,0,0,0,.83,4.91,11.76,11.76,0,0,0,2.3,3.91,10.7,10.7,0,0,0,3.49,2.56,10.53,10.53,0,0,0,4.43.93h19.27v6.57Z" transform="translate(-176.95 -45.39)"/><path class="cls-1" d="M235.63,563.27a15.9,15.9,0,0,1-6.87-1.48,16.94,16.94,0,0,1-5.48-4,18.3,18.3,0,0,1-3.62-6.08,21.89,21.89,0,0,1-1.29-7.6,21.17,21.17,0,0,1,1.29-7.55,16.74,16.74,0,0,1,3.62-5.82,16.12,16.12,0,0,1,5.48-3.73,17.6,17.6,0,0,1,6.87-1.32h8.65a18,18,0,0,1,7.07,1.35,16.06,16.06,0,0,1,5.5,3.77,17.36,17.36,0,0,1,3.57,5.82,21.31,21.31,0,0,1,1.27,7.48,21.66,21.66,0,0,1-1.3,7.6,18.3,18.3,0,0,1-3.62,6.08,16.81,16.81,0,0,1-5.5,4,16.31,16.31,0,0,1-7,1.48Zm8.65-6.57a10.69,10.69,0,0,0,8-3.49,11.65,11.65,0,0,0,2.33-3.91,14.3,14.3,0,0,0,.83-4.91,14.1,14.1,0,0,0-.83-4.89,11.37,11.37,0,0,0-2.33-3.85,10.52,10.52,0,0,0-3.54-2.51,10.94,10.94,0,0,0-4.5-.91h-8.65a10.64,10.64,0,0,0-4.43.91,10.46,10.46,0,0,0-3.5,2.51,11.68,11.68,0,0,0-2.29,3.82,13.88,13.88,0,0,0-.83,4.92,14.06,14.06,0,0,0,.83,4.91,11.91,11.91,0,0,0,2.29,3.91,10.74,10.74,0,0,0,3.5,2.56,10.5,10.5,0,0,0,4.43.93Z" transform="translate(-176.95 -45.39)"/><path class="cls-1" d="M272.49,535.75v27.52h-5.91V529.13a4.44,4.44,0,0,1,.85-2.87,2.83,2.83,0,0,1,2.33-1.06,3,3,0,0,1,1.32.31,5,5,0,0,1,1.32,1l25.08,26.33V525.35h5.92V559.8a4.44,4.44,0,0,1-.86,2.9,2.74,2.74,0,0,1-2.22,1,3.89,3.89,0,0,1-2.84-1.39Z" transform="translate(-176.95 -45.39)"/><path class="cls-1" d="M309.41,563.27V556.7h26.65a5.19,5.19,0,0,0,3.84-1.35,4.79,4.79,0,0,0,1.34-3.57,4.64,4.64,0,0,0-1.34-3.64,5.55,5.55,0,0,0-3.84-1.22H319.73a12.09,12.09,0,0,1-4.52-.8,9.6,9.6,0,0,1-3.43-2.22,9.91,9.91,0,0,1-2.15-3.39,11.94,11.94,0,0,1-.76-4.29,12.25,12.25,0,0,1,.71-4.22,9.06,9.06,0,0,1,2.11-3.34,9.67,9.67,0,0,1,3.44-2.19,12.76,12.76,0,0,1,4.7-.81h25.52v6.57H319.83a4.41,4.41,0,0,0-3.33,1.22,4.69,4.69,0,0,0-1.17,3.39,4.53,4.53,0,0,0,1.2,3.36,4.4,4.4,0,0,0,3.25,1.19h16.28c3.62,0,6.37.89,8.24,2.69s2.81,4.52,2.81,8.17a13.81,13.81,0,0,1-.68,4.4,9.64,9.64,0,0,1-2.06,3.49,9.33,9.33,0,0,1-3.44,2.3,13.17,13.17,0,0,1-4.87.83Z" transform="translate(-176.95 -45.39)"/><path class="cls-1" d="M363.83,563.27v-31H350.34v-6.57h33.2v6.57H370v31Z" transform="translate(-176.95 -45.39)"/><path class="cls-1" d="M420.65,563.27l-9-10.45h-13.3V547h14.81a6.44,6.44,0,0,0,5.09-1.94,8.26,8.26,0,0,0,1.71-5.62q0-3.66-1.79-5.45a6.78,6.78,0,0,0-5-1.79H393.81v31h-6.16V525.66h25.52a14.52,14.52,0,0,1,5.43,1,11.09,11.09,0,0,1,4.06,2.74,12.05,12.05,0,0,1,2.54,4.32,17.21,17.21,0,0,1,.88,5.69,14.93,14.93,0,0,1-1.93,7.89,11,11,0,0,1-5.4,4.58l10.7,11.43Z" transform="translate(-176.95 -45.39)"/><path class="cls-1" d="M463.29,525.66h6.06v21a24,24,0,0,1-1.07,7.58,12.48,12.48,0,0,1-3.37,5.35,14.41,14.41,0,0,1-6,3.16,38.11,38.11,0,0,1-17.6,0,14.31,14.31,0,0,1-5.94-3.16,12.38,12.38,0,0,1-3.37-5.35,23.93,23.93,0,0,1-1.08-7.58v-21h6.41v21a15.8,15.8,0,0,0,.66,4.87,7.29,7.29,0,0,0,2.15,3.31,9.17,9.17,0,0,0,4,1.88,31.92,31.92,0,0,0,12.32,0,9.16,9.16,0,0,0,4-1.88,7.37,7.37,0,0,0,2.15-3.31,15.8,15.8,0,0,0,.66-4.87Z" transform="translate(-176.95 -45.39)"/><path class="cls-1" d="M491.21,563.27a15.9,15.9,0,0,1-6.87-1.48,16.9,16.9,0,0,1-5.47-4,18.3,18.3,0,0,1-3.62-6.08,21.66,21.66,0,0,1-1.3-7.6,21,21,0,0,1,1.3-7.55,16.74,16.74,0,0,1,3.62-5.82,16.08,16.08,0,0,1,5.47-3.73,17.6,17.6,0,0,1,6.87-1.32h19.27v6.57H491.21a10.59,10.59,0,0,0-4.42.91,10.36,10.36,0,0,0-3.5,2.51,11.7,11.7,0,0,0-2.3,3.82,14.11,14.11,0,0,0-.83,4.92,14.3,14.3,0,0,0,.83,4.91,11.93,11.93,0,0,0,2.3,3.91,10.63,10.63,0,0,0,3.5,2.56,10.45,10.45,0,0,0,4.42.93h19.27v6.57Z" transform="translate(-176.95 -45.39)"/><path class="cls-1" d="M531.75,563.27a15.9,15.9,0,0,1-6.87-1.48,17,17,0,0,1-5.48-4,18.47,18.47,0,0,1-3.62-6.08,21.89,21.89,0,0,1-1.29-7.6,21.17,21.17,0,0,1,1.29-7.55,16.89,16.89,0,0,1,3.62-5.82,16.22,16.22,0,0,1,5.48-3.73,17.6,17.6,0,0,1,6.87-1.32H551v6.57H531.75a10.64,10.64,0,0,0-4.43.91,10.32,10.32,0,0,0-3.49,2.51,11.53,11.53,0,0,0-2.3,3.82,13.88,13.88,0,0,0-.83,4.92,14.06,14.06,0,0,0,.83,4.91,11.76,11.76,0,0,0,2.3,3.91,10.47,10.47,0,0,0,7.92,3.49H551v6.57Z" transform="translate(-176.95 -45.39)"/><path class="cls-1" d="M556.39,563.27V525.66h6.21v37.61Z" transform="translate(-176.95 -45.39)"/><path class="cls-1" d="M585.34,563.27a15.9,15.9,0,0,1-6.87-1.48,17,17,0,0,1-5.48-4,18.47,18.47,0,0,1-3.62-6.08,21.89,21.89,0,0,1-1.29-7.6,21.17,21.17,0,0,1,1.29-7.55,16.89,16.89,0,0,1,3.62-5.82,16.22,16.22,0,0,1,5.48-3.73,17.6,17.6,0,0,1,6.87-1.32H594a18,18,0,0,1,7.07,1.35,16.06,16.06,0,0,1,5.5,3.77,17.36,17.36,0,0,1,3.57,5.82,21.08,21.08,0,0,1,1.27,7.48,21.89,21.89,0,0,1-1.29,7.6,18.47,18.47,0,0,1-3.62,6.08,16.91,16.91,0,0,1-5.5,4,16.33,16.33,0,0,1-7,1.48ZM594,556.7a10.79,10.79,0,0,0,4.5-.93,10.94,10.94,0,0,0,3.55-2.56,11.63,11.63,0,0,0,2.32-3.91,14.3,14.3,0,0,0,.83-4.91,14.1,14.1,0,0,0-.83-4.89,11.35,11.35,0,0,0-2.32-3.85,10.66,10.66,0,0,0-3.55-2.51,10.94,10.94,0,0,0-4.5-.91h-8.65a10.67,10.67,0,0,0-4.43.91,10.42,10.42,0,0,0-3.49,2.51,11.53,11.53,0,0,0-2.3,3.82,14.11,14.11,0,0,0-.83,4.92,14.3,14.3,0,0,0,.83,4.91,11.76,11.76,0,0,0,2.3,3.91,10.7,10.7,0,0,0,3.49,2.56,10.53,10.53,0,0,0,4.43.93Z" transform="translate(-176.95 -45.39)"/><path class="cls-1" d="M622.21,535.75v27.52h-5.92V529.13a4.44,4.44,0,0,1,.86-2.87,2.81,2.81,0,0,1,2.32-1.06,2.91,2.91,0,0,1,1.32.31,5,5,0,0,1,1.32,1l25.08,26.33V525.35h5.92V559.8a4.44,4.44,0,0,1-.85,2.9,2.77,2.77,0,0,1-2.23,1,3.89,3.89,0,0,1-2.84-1.39Z" transform="translate(-176.95 -45.39)"/></svg>