<?xml version="1.0" encoding="utf-8"?>
<!-- Svg Vector Icons : http://www.onlinewebfonts.com/icon -->
<!DOCTYPE svg PUBLIC "-//W3C//DTD SVG 1.1//EN" "http://www.w3.org/Graphics/SVG/1.1/DTD/svg11.dtd">
<svg version="1.1" xmlns="http://www.w3.org/2000/svg" xmlns:xlink="http://www.w3.org/1999/xlink" x="0px" y="0px" viewBox="0 0 1000 1000" enable-background="new 0 0 1000 1000" xml:space="preserve">
<metadata> Svg Vector Icons : http://www.onlinewebfonts.com/icon </metadata>
<g><g><path d="M500,10L10,316.3h980L500,10z M775.6,377.5l30.6,61.3v367.5h122.5V438.8l30.6-61.3H775.6z M530.6,377.5l30.6,61.3v367.5h122.5V438.8l30.6-61.3H530.6z M285.6,377.5l30.6,61.3v367.5h122.5V438.8l30.6-61.3H285.6z M40.6,377.5l30.6,61.3v367.5h122.5V438.8l30.6-61.3H40.6z M40.6,867.5L10,990h980l-30.6-122.5H40.6z M561.3,193.8c0,33.8-27.4,61.3-61.3,61.3s-61.3-27.4-61.3-61.3s27.4-61.3,61.3-61.3S561.3,159.9,561.3,193.8z"/></g><g></g><g></g><g></g><g></g><g></g><g></g><g></g><g></g><g></g><g></g><g></g><g></g><g></g><g></g><g></g></g>
</svg>